<?xml version="1.0" encoding="UTF-8" standalone="no"?>
<!DOCTYPE svg PUBLIC "-//W3C//DTD SVG 1.1//EN"
 "http://www.w3.org/Graphics/SVG/1.1/DTD/svg11.dtd">
<!-- Generated by graphviz version 12.2.1 (20241206.2353)
 -->
<!-- Title: G Pages: 1 -->
<svg width="2248pt" height="654pt"
 viewBox="0.00 0.00 2247.50 654.00" xmlns="http://www.w3.org/2000/svg" xmlns:xlink="http://www.w3.org/1999/xlink">
<g id="graph0" class="graph" transform="scale(1 1) rotate(0) translate(4 650)">
<title>G</title>
<polygon fill="white" stroke="none" points="-4,4 -4,-650 2243.5,-650 2243.5,4 -4,4"/>
<!-- aws_api_gateway_deployment.todo_api_deployment -->
<g id="node1" class="node">
<title>aws_api_gateway_deployment.todo_api_deployment</title>
<polygon fill="none" stroke="black" points="2171.25,-342 1836.5,-342 1836.5,-306 2171.25,-306 2171.25,-342"/>
<text text-anchor="middle" x="2003.88" y="-318.2" font-family="sans-serif" font-size="14.00">aws_api_gateway_deployment.todo_api_deployment</text>
</g>
<!-- aws_api_gateway_integration.delete_todo_integration -->
<g id="node2" class="node">
<title>aws_api_gateway_integration.delete_todo_integration</title>
<polygon fill="none" stroke="black" points="1662.5,-234 1324,-234 1324,-198 1662.5,-198 1662.5,-234"/>
<text text-anchor="middle" x="1493.25" y="-210.2" font-family="sans-serif" font-size="14.00">aws_api_gateway_integration.delete_todo_integration</text>
</g>
<!-- aws_api_gateway_deployment.todo_api_deployment&#45;&gt;aws_api_gateway_integration.delete_todo_integration -->
<g id="edge1" class="edge">
<title>aws_api_gateway_deployment.todo_api_deployment&#45;&gt;aws_api_gateway_integration.delete_todo_integration</title>
<path fill="none" stroke="black" d="M1951.19,-305.53C1897.24,-286.96 1809.85,-258.88 1732.25,-243 1713.52,-239.17 1693.84,-235.84 1674.15,-232.96"/>
<polygon fill="black" stroke="black" points="1674.79,-229.51 1664.39,-231.57 1673.8,-236.44 1674.79,-229.51"/>
</g>
<!-- aws_api_gateway_integration.get_todo_integration -->
<g id="node3" class="node">
<title>aws_api_gateway_integration.get_todo_integration</title>
<polygon fill="none" stroke="black" points="1653.5,-342 1333,-342 1333,-306 1653.5,-306 1653.5,-342"/>
<text text-anchor="middle" x="1493.25" y="-318.2" font-family="sans-serif" font-size="14.00">aws_api_gateway_integration.get_todo_integration</text>
</g>
<!-- aws_api_gateway_deployment.todo_api_deployment&#45;&gt;aws_api_gateway_integration.get_todo_integration -->
<g id="edge2" class="edge">
<title>aws_api_gateway_deployment.todo_api_deployment&#45;&gt;aws_api_gateway_integration.get_todo_integration</title>
<path fill="none" stroke="black" d="M1836.33,-324C1781.45,-324 1720.34,-324 1665.14,-324"/>
<polygon fill="black" stroke="black" points="1665.33,-320.5 1655.33,-324 1665.33,-327.5 1665.33,-320.5"/>
</g>
<!-- aws_api_gateway_integration.get_todos_integration -->
<g id="node4" class="node">
<title>aws_api_gateway_integration.get_todos_integration</title>
<polygon fill="none" stroke="black" points="1656.88,-450 1329.62,-450 1329.62,-414 1656.88,-414 1656.88,-450"/>
<text text-anchor="middle" x="1493.25" y="-426.2" font-family="sans-serif" font-size="14.00">aws_api_gateway_integration.get_todos_integration</text>
</g>
<!-- aws_api_gateway_deployment.todo_api_deployment&#45;&gt;aws_api_gateway_integration.get_todos_integration -->
<g id="edge3" class="edge">
<title>aws_api_gateway_deployment.todo_api_deployment&#45;&gt;aws_api_gateway_integration.get_todos_integration</title>
<path fill="none" stroke="black" d="M1951.19,-342.47C1897.24,-361.04 1809.85,-389.12 1732.25,-405 1711.69,-409.21 1690,-412.8 1668.41,-415.87"/>
<polygon fill="black" stroke="black" points="1668.06,-412.38 1658.63,-417.22 1669.01,-419.32 1668.06,-412.38"/>
</g>
<!-- aws_api_gateway_integration.post_todos_integration -->
<g id="node5" class="node">
<title>aws_api_gateway_integration.post_todos_integration</title>
<polygon fill="none" stroke="black" points="1660.25,-396 1326.25,-396 1326.25,-360 1660.25,-360 1660.25,-396"/>
<text text-anchor="middle" x="1493.25" y="-372.2" font-family="sans-serif" font-size="14.00">aws_api_gateway_integration.post_todos_integration</text>
</g>
<!-- aws_api_gateway_deployment.todo_api_deployment&#45;&gt;aws_api_gateway_integration.post_todos_integration -->
<g id="edge4" class="edge">
<title>aws_api_gateway_deployment.todo_api_deployment&#45;&gt;aws_api_gateway_integration.post_todos_integration</title>
<path fill="none" stroke="black" d="M1836.33,-341.68C1783.72,-347.27 1725.4,-353.46 1672.04,-359.12"/>
<polygon fill="black" stroke="black" points="1671.81,-355.63 1662.24,-360.16 1672.55,-362.59 1671.81,-355.63"/>
</g>
<!-- aws_api_gateway_integration.put_todo_integration -->
<g id="node6" class="node">
<title>aws_api_gateway_integration.put_todo_integration</title>
<polygon fill="none" stroke="black" points="1653.5,-288 1333,-288 1333,-252 1653.5,-252 1653.5,-288"/>
<text text-anchor="middle" x="1493.25" y="-264.2" font-family="sans-serif" font-size="14.00">aws_api_gateway_integration.put_todo_integration</text>
</g>
<!-- aws_api_gateway_deployment.todo_api_deployment&#45;&gt;aws_api_gateway_integration.put_todo_integration -->
<g id="edge5" class="edge">
<title>aws_api_gateway_deployment.todo_api_deployment&#45;&gt;aws_api_gateway_integration.put_todo_integration</title>
<path fill="none" stroke="black" d="M1836.33,-306.32C1781.45,-300.49 1720.34,-294 1665.14,-288.14"/>
<polygon fill="black" stroke="black" points="1665.63,-284.68 1655.32,-287.1 1664.89,-291.64 1665.63,-284.68"/>
</g>
<!-- aws_api_gateway_method.delete_todo -->
<g id="node11" class="node">
<title>aws_api_gateway_method.delete_todo</title>
<polygon fill="none" stroke="black" points="1147.75,-226 897,-226 897,-190 1147.75,-190 1147.75,-226"/>
<text text-anchor="middle" x="1022.38" y="-202.2" font-family="sans-serif" font-size="14.00">aws_api_gateway_method.delete_todo</text>
</g>
<!-- aws_api_gateway_integration.delete_todo_integration&#45;&gt;aws_api_gateway_method.delete_todo -->
<g id="edge6" class="edge">
<title>aws_api_gateway_integration.delete_todo_integration&#45;&gt;aws_api_gateway_method.delete_todo</title>
<path fill="none" stroke="black" d="M1323.64,-213.12C1269.82,-212.2 1210.96,-211.2 1159.73,-210.33"/>
<polygon fill="black" stroke="black" points="1159.81,-206.83 1149.75,-210.16 1159.69,-213.83 1159.81,-206.83"/>
</g>
<!-- aws_lambda_function.todo_api -->
<g id="node29" class="node">
<title>aws_lambda_function.todo_api</title>
<polygon fill="none" stroke="black" points="1123.75,-280 921,-280 921,-244 1123.75,-244 1123.75,-280"/>
<text text-anchor="middle" x="1022.38" y="-256.2" font-family="sans-serif" font-size="14.00">aws_lambda_function.todo_api</text>
</g>
<!-- aws_api_gateway_integration.delete_todo_integration&#45;&gt;aws_lambda_function.todo_api -->
<g id="edge7" class="edge">
<title>aws_api_gateway_integration.delete_todo_integration&#45;&gt;aws_lambda_function.todo_api</title>
<path fill="none" stroke="black" d="M1323.64,-232.54C1261.13,-238.67 1191.82,-245.47 1135.56,-250.99"/>
<polygon fill="black" stroke="black" points="1135.24,-247.51 1125.63,-251.97 1135.92,-254.47 1135.24,-247.51"/>
</g>
<!-- aws_api_gateway_method.get_todo -->
<g id="node12" class="node">
<title>aws_api_gateway_method.get_todo</title>
<polygon fill="none" stroke="black" points="1138.75,-388 906,-388 906,-352 1138.75,-352 1138.75,-388"/>
<text text-anchor="middle" x="1022.38" y="-364.2" font-family="sans-serif" font-size="14.00">aws_api_gateway_method.get_todo</text>
</g>
<!-- aws_api_gateway_integration.get_todo_integration&#45;&gt;aws_api_gateway_method.get_todo -->
<g id="edge8" class="edge">
<title>aws_api_gateway_integration.get_todo_integration&#45;&gt;aws_api_gateway_method.get_todo</title>
<path fill="none" stroke="black" d="M1332.53,-339.67C1273.19,-345.49 1206.72,-352.01 1150.66,-357.51"/>
<polygon fill="black" stroke="black" points="1150.34,-354.03 1140.73,-358.49 1151.03,-360.99 1150.34,-354.03"/>
</g>
<!-- aws_api_gateway_integration.get_todo_integration&#45;&gt;aws_lambda_function.todo_api -->
<g id="edge9" class="edge">
<title>aws_api_gateway_integration.get_todo_integration&#45;&gt;aws_lambda_function.todo_api</title>
<path fill="none" stroke="black" d="M1332.54,-308.24C1306.31,-304.97 1279.47,-301.22 1254.25,-297 1238.08,-294.29 1234.38,-291.9 1218.25,-289 1191.44,-284.17 1162.42,-279.73 1135.17,-275.91"/>
<polygon fill="black" stroke="black" points="1135.9,-272.47 1125.51,-274.57 1134.94,-279.41 1135.9,-272.47"/>
</g>
<!-- aws_api_gateway_method.get_todos -->
<g id="node13" class="node">
<title>aws_api_gateway_method.get_todos</title>
<polygon fill="none" stroke="black" points="778.12,-480 538.62,-480 538.62,-444 778.12,-444 778.12,-480"/>
<text text-anchor="middle" x="658.38" y="-456.2" font-family="sans-serif" font-size="14.00">aws_api_gateway_method.get_todos</text>
</g>
<!-- aws_api_gateway_integration.get_todos_integration&#45;&gt;aws_api_gateway_method.get_todos -->
<g id="edge10" class="edge">
<title>aws_api_gateway_integration.get_todos_integration&#45;&gt;aws_api_gateway_method.get_todos</title>
<path fill="none" stroke="black" d="M1329.19,-437.87C1171.46,-443.55 935.48,-452.05 789.82,-457.3"/>
<polygon fill="black" stroke="black" points="790,-453.79 780.13,-457.65 790.25,-460.79 790,-453.79"/>
</g>
<!-- aws_api_gateway_integration.get_todos_integration&#45;&gt;aws_lambda_function.todo_api -->
<g id="edge11" class="edge">
<title>aws_api_gateway_integration.get_todos_integration&#45;&gt;aws_lambda_function.todo_api</title>
<path fill="none" stroke="black" d="M1329.41,-438.57C1302.05,-433 1275.63,-422.7 1254.25,-405 1212.67,-370.58 1259.41,-323.93 1218.25,-289 1195.33,-269.55 1165.14,-260.28 1135.39,-256.49"/>
<polygon fill="black" stroke="black" points="1135.84,-253.02 1125.52,-255.46 1135.1,-259.98 1135.84,-253.02"/>
</g>
<!-- aws_api_gateway_method.post_todos -->
<g id="node14" class="node">
<title>aws_api_gateway_method.post_todos</title>
<polygon fill="none" stroke="black" points="781.5,-426 535.25,-426 535.25,-390 781.5,-390 781.5,-426"/>
<text text-anchor="middle" x="658.38" y="-402.2" font-family="sans-serif" font-size="14.00">aws_api_gateway_method.post_todos</text>
</g>
<!-- aws_api_gateway_integration.post_todos_integration&#45;&gt;aws_api_gateway_method.post_todos -->
<g id="edge12" class="edge">
<title>aws_api_gateway_integration.post_todos_integration&#45;&gt;aws_api_gateway_method.post_todos</title>
<path fill="none" stroke="black" d="M1326.06,-390.85C1290.5,-393.23 1253.14,-395.45 1218.25,-397 1073.08,-403.46 906.54,-406.12 793.29,-407.23"/>
<polygon fill="black" stroke="black" points="793.29,-403.73 783.32,-407.32 793.36,-410.72 793.29,-403.73"/>
</g>
<!-- aws_api_gateway_integration.post_todos_integration&#45;&gt;aws_lambda_function.todo_api -->
<g id="edge13" class="edge">
<title>aws_api_gateway_integration.post_todos_integration&#45;&gt;aws_lambda_function.todo_api</title>
<path fill="none" stroke="black" d="M1325.93,-379.15C1300.52,-373.82 1275.66,-364.99 1254.25,-351 1227.58,-333.57 1244.71,-306.76 1218.25,-289 1194.09,-272.78 1164.43,-264.37 1135.61,-260.36"/>
<polygon fill="black" stroke="black" points="1136.03,-256.89 1125.69,-259.17 1135.2,-263.84 1136.03,-256.89"/>
</g>
<!-- aws_api_gateway_method.put_todo -->
<g id="node15" class="node">
<title>aws_api_gateway_method.put_todo</title>
<polygon fill="none" stroke="black" points="1138.75,-334 906,-334 906,-298 1138.75,-298 1138.75,-334"/>
<text text-anchor="middle" x="1022.38" y="-310.2" font-family="sans-serif" font-size="14.00">aws_api_gateway_method.put_todo</text>
</g>
<!-- aws_api_gateway_integration.put_todo_integration&#45;&gt;aws_api_gateway_method.put_todo -->
<g id="edge14" class="edge">
<title>aws_api_gateway_integration.put_todo_integration&#45;&gt;aws_api_gateway_method.put_todo</title>
<path fill="none" stroke="black" d="M1332.53,-285.67C1273.19,-291.49 1206.72,-298.01 1150.66,-303.51"/>
<polygon fill="black" stroke="black" points="1150.34,-300.03 1140.73,-304.49 1151.03,-306.99 1150.34,-300.03"/>
</g>
<!-- aws_api_gateway_integration.put_todo_integration&#45;&gt;aws_lambda_function.todo_api -->
<g id="edge15" class="edge">
<title>aws_api_gateway_integration.put_todo_integration&#45;&gt;aws_lambda_function.todo_api</title>
<path fill="none" stroke="black" d="M1332.53,-267.27C1267.71,-266.17 1194.37,-264.92 1135.4,-263.91"/>
<polygon fill="black" stroke="black" points="1135.75,-260.42 1125.7,-263.75 1135.64,-267.42 1135.75,-260.42"/>
</g>
<!-- aws_api_gateway_integration.todo_options_integration -->
<g id="node7" class="node">
<title>aws_api_gateway_integration.todo_options_integration</title>
<polygon fill="none" stroke="black" points="1665.88,-504 1320.62,-504 1320.62,-468 1665.88,-468 1665.88,-504"/>
<text text-anchor="middle" x="1493.25" y="-480.2" font-family="sans-serif" font-size="14.00">aws_api_gateway_integration.todo_options_integration</text>
</g>
<!-- aws_api_gateway_method.todo_options -->
<g id="node16" class="node">
<title>aws_api_gateway_method.todo_options</title>
<polygon fill="none" stroke="black" points="1151.12,-518 893.62,-518 893.62,-482 1151.12,-482 1151.12,-518"/>
<text text-anchor="middle" x="1022.38" y="-494.2" font-family="sans-serif" font-size="14.00">aws_api_gateway_method.todo_options</text>
</g>
<!-- aws_api_gateway_integration.todo_options_integration&#45;&gt;aws_api_gateway_method.todo_options -->
<g id="edge16" class="edge">
<title>aws_api_gateway_integration.todo_options_integration&#45;&gt;aws_api_gateway_method.todo_options</title>
<path fill="none" stroke="black" d="M1320.32,-491.13C1268.55,-492.68 1212.4,-494.36 1163,-495.83"/>
<polygon fill="black" stroke="black" points="1162.99,-492.33 1153.09,-496.13 1163.19,-499.33 1162.99,-492.33"/>
</g>
<!-- aws_api_gateway_integration.todos_options_integration -->
<g id="node8" class="node">
<title>aws_api_gateway_integration.todos_options_integration</title>
<polygon fill="none" stroke="black" points="1198.38,-646 846.38,-646 846.38,-610 1198.38,-610 1198.38,-646"/>
<text text-anchor="middle" x="1022.38" y="-622.2" font-family="sans-serif" font-size="14.00">aws_api_gateway_integration.todos_options_integration</text>
</g>
<!-- aws_api_gateway_method.todos_options -->
<g id="node17" class="node">
<title>aws_api_gateway_method.todos_options</title>
<polygon fill="none" stroke="black" points="790.5,-592 526.25,-592 526.25,-556 790.5,-556 790.5,-592"/>
<text text-anchor="middle" x="658.38" y="-568.2" font-family="sans-serif" font-size="14.00">aws_api_gateway_method.todos_options</text>
</g>
<!-- aws_api_gateway_integration.todos_options_integration&#45;&gt;aws_api_gateway_method.todos_options -->
<g id="edge17" class="edge">
<title>aws_api_gateway_integration.todos_options_integration&#45;&gt;aws_api_gateway_method.todos_options</title>
<path fill="none" stroke="black" d="M885.03,-609.51C865.38,-606.73 845.42,-603.84 826.5,-601 812.26,-598.86 797.34,-596.55 782.53,-594.22"/>
<polygon fill="black" stroke="black" points="783.16,-590.77 772.74,-592.67 782.07,-597.69 783.16,-590.77"/>
</g>
<!-- aws_api_gateway_integration_response.todo_options_integration_response -->
<g id="node9" class="node">
<title>aws_api_gateway_integration_response.todo_options_integration_response</title>
<polygon fill="none" stroke="black" points="2239.5,-558 1768.25,-558 1768.25,-522 2239.5,-522 2239.5,-558"/>
<text text-anchor="middle" x="2003.88" y="-534.2" font-family="sans-serif" font-size="14.00">aws_api_gateway_integration_response.todo_options_integration_response</text>
</g>
<!-- aws_api_gateway_method_response.todo_options_response -->
<g id="node18" class="node">
<title>aws_api_gateway_method_response.todo_options_response</title>
<polygon fill="none" stroke="black" points="1685,-558 1301.5,-558 1301.5,-522 1685,-522 1685,-558"/>
<text text-anchor="middle" x="1493.25" y="-534.2" font-family="sans-serif" font-size="14.00">aws_api_gateway_method_response.todo_options_response</text>
</g>
<!-- aws_api_gateway_integration_response.todo_options_integration_response&#45;&gt;aws_api_gateway_method_response.todo_options_response -->
<g id="edge18" class="edge">
<title>aws_api_gateway_integration_response.todo_options_integration_response&#45;&gt;aws_api_gateway_method_response.todo_options_response</title>
<path fill="none" stroke="black" d="M1767.92,-540C1744.09,-540 1720.04,-540 1696.61,-540"/>
<polygon fill="black" stroke="black" points="1696.67,-536.5 1686.67,-540 1696.67,-543.5 1696.67,-536.5"/>
</g>
<!-- aws_api_gateway_integration_response.todos_options_integration_response -->
<g id="node10" class="node">
<title>aws_api_gateway_integration_response.todos_options_integration_response</title>
<polygon fill="none" stroke="black" points="1732.25,-612 1254.25,-612 1254.25,-576 1732.25,-576 1732.25,-612"/>
<text text-anchor="middle" x="1493.25" y="-588.2" font-family="sans-serif" font-size="14.00">aws_api_gateway_integration_response.todos_options_integration_response</text>
</g>
<!-- aws_api_gateway_method_response.todos_options_response -->
<g id="node19" class="node">
<title>aws_api_gateway_method_response.todos_options_response</title>
<polygon fill="none" stroke="black" points="1217.5,-592 827.25,-592 827.25,-556 1217.5,-556 1217.5,-592"/>
<text text-anchor="middle" x="1022.38" y="-568.2" font-family="sans-serif" font-size="14.00">aws_api_gateway_method_response.todos_options_response</text>
</g>
<!-- aws_api_gateway_integration_response.todos_options_integration_response&#45;&gt;aws_api_gateway_method_response.todos_options_response -->
<g id="edge19" class="edge">
<title>aws_api_gateway_integration_response.todos_options_integration_response&#45;&gt;aws_api_gateway_method_response.todos_options_response</title>
<path fill="none" stroke="black" d="M1254.04,-583.84C1245.71,-583.48 1237.38,-583.13 1229.11,-582.78"/>
<polygon fill="black" stroke="black" points="1229.51,-579.29 1219.37,-582.36 1229.21,-586.28 1229.51,-579.29"/>
</g>
<!-- aws_api_gateway_resource.todo -->
<g id="node20" class="node">
<title>aws_api_gateway_resource.todo</title>
<polygon fill="none" stroke="black" points="765,-372 551.75,-372 551.75,-336 765,-336 765,-372"/>
<text text-anchor="middle" x="658.38" y="-348.2" font-family="sans-serif" font-size="14.00">aws_api_gateway_resource.todo</text>
</g>
<!-- aws_api_gateway_method.delete_todo&#45;&gt;aws_api_gateway_resource.todo -->
<g id="edge20" class="edge">
<title>aws_api_gateway_method.delete_todo&#45;&gt;aws_api_gateway_resource.todo</title>
<path fill="none" stroke="black" d="M896.74,-215.72C872.85,-219.84 848.45,-225.96 826.5,-235 808.01,-242.61 806.69,-250.26 790.5,-262 758.63,-285.13 721.89,-310.82 695.43,-329.16"/>
<polygon fill="black" stroke="black" points="693.65,-326.14 687.42,-334.71 697.63,-331.89 693.65,-326.14"/>
</g>
<!-- aws_api_gateway_method.get_todo&#45;&gt;aws_api_gateway_resource.todo -->
<g id="edge21" class="edge">
<title>aws_api_gateway_method.get_todo&#45;&gt;aws_api_gateway_resource.todo</title>
<path fill="none" stroke="black" d="M905.84,-364.89C864.52,-363.07 817.94,-361.01 776.49,-359.18"/>
<polygon fill="black" stroke="black" points="776.88,-355.69 766.74,-358.75 776.57,-362.68 776.88,-355.69"/>
</g>
<!-- aws_api_gateway_resource.todos -->
<g id="node21" class="node">
<title>aws_api_gateway_resource.todos</title>
<polygon fill="none" stroke="black" points="490.25,-426 270.25,-426 270.25,-390 490.25,-390 490.25,-426"/>
<text text-anchor="middle" x="380.25" y="-402.2" font-family="sans-serif" font-size="14.00">aws_api_gateway_resource.todos</text>
</g>
<!-- aws_api_gateway_method.get_todos&#45;&gt;aws_api_gateway_resource.todos -->
<g id="edge22" class="edge">
<title>aws_api_gateway_method.get_todos&#45;&gt;aws_api_gateway_resource.todos</title>
<path fill="none" stroke="black" d="M563.12,-443.57C538.49,-438.75 511.78,-433.53 486.61,-428.6"/>
<polygon fill="black" stroke="black" points="487.52,-425.22 477.03,-426.73 486.18,-432.09 487.52,-425.22"/>
</g>
<!-- aws_api_gateway_method.post_todos&#45;&gt;aws_api_gateway_resource.todos -->
<g id="edge23" class="edge">
<title>aws_api_gateway_method.post_todos&#45;&gt;aws_api_gateway_resource.todos</title>
<path fill="none" stroke="black" d="M535.06,-408C524.03,-408 512.87,-408 501.85,-408"/>
<polygon fill="black" stroke="black" points="501.96,-404.5 491.96,-408 501.96,-411.5 501.96,-404.5"/>
</g>
<!-- aws_api_gateway_method.put_todo&#45;&gt;aws_api_gateway_resource.todo -->
<g id="edge24" class="edge">
<title>aws_api_gateway_method.put_todo&#45;&gt;aws_api_gateway_resource.todo</title>
<path fill="none" stroke="black" d="M905.84,-328.13C864.52,-332.47 817.94,-337.35 776.49,-341.71"/>
<polygon fill="black" stroke="black" points="776.31,-338.21 766.73,-342.73 777.04,-345.17 776.31,-338.21"/>
</g>
<!-- aws_api_gateway_method.todo_options&#45;&gt;aws_api_gateway_resource.todo -->
<g id="edge25" class="edge">
<title>aws_api_gateway_method.todo_options&#45;&gt;aws_api_gateway_resource.todo</title>
<path fill="none" stroke="black" d="M986.81,-481.52C927.47,-449.9 810.64,-388.11 790.5,-381 784.88,-379.02 779.08,-377.16 773.18,-375.42"/>
<polygon fill="black" stroke="black" points="774.5,-372.16 763.93,-372.84 772.62,-378.9 774.5,-372.16"/>
</g>
<!-- aws_api_gateway_method.todos_options&#45;&gt;aws_api_gateway_resource.todos -->
<g id="edge26" class="edge">
<title>aws_api_gateway_method.todos_options&#45;&gt;aws_api_gateway_resource.todos</title>
<path fill="none" stroke="black" d="M626.77,-555.6C576.7,-525.5 477.28,-465.73 421.54,-432.22"/>
<polygon fill="black" stroke="black" points="423.66,-429.41 413.29,-427.26 420.06,-435.41 423.66,-429.41"/>
</g>
<!-- aws_api_gateway_method_response.todo_options_response&#45;&gt;aws_api_gateway_method.todo_options -->
<g id="edge27" class="edge">
<title>aws_api_gateway_method_response.todo_options_response&#45;&gt;aws_api_gateway_method.todo_options</title>
<path fill="none" stroke="black" d="M1301.2,-523.7C1254.82,-519.74 1206.09,-515.59 1162.61,-511.88"/>
<polygon fill="black" stroke="black" points="1163.15,-508.41 1152.89,-511.05 1162.56,-515.39 1163.15,-508.41"/>
</g>
<!-- aws_api_gateway_method_response.todos_options_response&#45;&gt;aws_api_gateway_method.todos_options -->
<g id="edge28" class="edge">
<title>aws_api_gateway_method_response.todos_options_response&#45;&gt;aws_api_gateway_method.todos_options</title>
<path fill="none" stroke="black" d="M826.86,-574C818.55,-574 810.28,-574 802.11,-574"/>
<polygon fill="black" stroke="black" points="802.16,-570.5 792.16,-574 802.16,-577.5 802.16,-570.5"/>
</g>
<!-- aws_api_gateway_resource.todo&#45;&gt;aws_api_gateway_resource.todos -->
<g id="edge29" class="edge">
<title>aws_api_gateway_resource.todo&#45;&gt;aws_api_gateway_resource.todos</title>
<path fill="none" stroke="black" d="M563.12,-372.43C538.49,-377.25 511.78,-382.47 486.61,-387.4"/>
<polygon fill="black" stroke="black" points="486.18,-383.91 477.03,-389.27 487.52,-390.78 486.18,-383.91"/>
</g>
<!-- aws_api_gateway_rest_api.todo_api -->
<g id="node22" class="node">
<title>aws_api_gateway_rest_api.todo_api</title>
<polygon fill="none" stroke="black" points="234.25,-303 0,-303 0,-267 234.25,-267 234.25,-303"/>
<text text-anchor="middle" x="117.12" y="-279.2" font-family="sans-serif" font-size="14.00">aws_api_gateway_rest_api.todo_api</text>
</g>
<!-- aws_api_gateway_resource.todos&#45;&gt;aws_api_gateway_rest_api.todo_api -->
<g id="edge30" class="edge">
<title>aws_api_gateway_resource.todos&#45;&gt;aws_api_gateway_rest_api.todo_api</title>
<path fill="none" stroke="black" d="M340.16,-389.59C294.07,-367.87 217.41,-331.77 167.32,-308.17"/>
<polygon fill="black" stroke="black" points="168.97,-305.08 158.43,-303.98 165.98,-311.41 168.97,-305.08"/>
</g>
<!-- aws_dynamodb_table.todo_table -->
<g id="node23" class="node">
<title>aws_dynamodb_table.todo_table</title>
<polygon fill="none" stroke="black" points="765.75,-253 551,-253 551,-217 765.75,-217 765.75,-253"/>
<text text-anchor="middle" x="658.38" y="-229.2" font-family="sans-serif" font-size="14.00">aws_dynamodb_table.todo_table</text>
</g>
<!-- aws_iam_policy.lambda_dynamodb_policy -->
<g id="node24" class="node">
<title>aws_iam_policy.lambda_dynamodb_policy</title>
<polygon fill="none" stroke="black" points="1159,-134 885.75,-134 885.75,-98 1159,-98 1159,-134"/>
<text text-anchor="middle" x="1022.38" y="-110.2" font-family="sans-serif" font-size="14.00">aws_iam_policy.lambda_dynamodb_policy</text>
</g>
<!-- aws_iam_policy.lambda_dynamodb_policy&#45;&gt;aws_dynamodb_table.todo_table -->
<g id="edge31" class="edge">
<title>aws_iam_policy.lambda_dynamodb_policy&#45;&gt;aws_dynamodb_table.todo_table</title>
<path fill="none" stroke="black" d="M965.21,-134.46C900.65,-155.69 794.76,-190.49 726.07,-213.08"/>
<polygon fill="black" stroke="black" points="725.22,-209.67 716.81,-216.12 727.4,-216.32 725.22,-209.67"/>
</g>
<!-- aws_iam_policy.lambda_logging_policy -->
<g id="node25" class="node">
<title>aws_iam_policy.lambda_logging_policy</title>
<polygon fill="none" stroke="black" points="784.88,-36 531.88,-36 531.88,0 784.88,0 784.88,-36"/>
<text text-anchor="middle" x="658.38" y="-12.2" font-family="sans-serif" font-size="14.00">aws_iam_policy.lambda_logging_policy</text>
</g>
<!-- aws_iam_role.lambda_role -->
<g id="node26" class="node">
<title>aws_iam_role.lambda_role</title>
<polygon fill="none" stroke="black" points="747.75,-90 569,-90 569,-54 747.75,-54 747.75,-90"/>
<text text-anchor="middle" x="658.38" y="-66.2" font-family="sans-serif" font-size="14.00">aws_iam_role.lambda_role</text>
</g>
<!-- aws_iam_role_policy_attachment.lambda_dynamodb_attachment -->
<g id="node27" class="node">
<title>aws_iam_role_policy_attachment.lambda_dynamodb_attachment</title>
<polygon fill="none" stroke="black" points="1699.25,-107 1287.25,-107 1287.25,-71 1699.25,-71 1699.25,-107"/>
<text text-anchor="middle" x="1493.25" y="-83.2" font-family="sans-serif" font-size="14.00">aws_iam_role_policy_attachment.lambda_dynamodb_attachment</text>
</g>
<!-- aws_iam_role_policy_attachment.lambda_dynamodb_attachment&#45;&gt;aws_iam_policy.lambda_dynamodb_policy -->
<g id="edge32" class="edge">
<title>aws_iam_role_policy_attachment.lambda_dynamodb_attachment&#45;&gt;aws_iam_policy.lambda_dynamodb_policy</title>
<path fill="none" stroke="black" d="M1286.94,-100.82C1247.77,-103.08 1207.51,-105.4 1170.6,-107.52"/>
<polygon fill="black" stroke="black" points="1170.56,-104.02 1160.78,-108.09 1170.96,-111.01 1170.56,-104.02"/>
</g>
<!-- aws_iam_role_policy_attachment.lambda_dynamodb_attachment&#45;&gt;aws_iam_role.lambda_role -->
<g id="edge33" class="edge">
<title>aws_iam_role_policy_attachment.lambda_dynamodb_attachment&#45;&gt;aws_iam_role.lambda_role</title>
<path fill="none" stroke="black" d="M1286.91,-84.81C1119.28,-81.39 889.62,-76.7 759.69,-74.05"/>
<polygon fill="black" stroke="black" points="759.79,-70.55 749.72,-73.84 759.64,-77.55 759.79,-70.55"/>
</g>
<!-- aws_iam_role_policy_attachment.lambda_logging_attachment -->
<g id="node28" class="node">
<title>aws_iam_role_policy_attachment.lambda_logging_attachment</title>
<polygon fill="none" stroke="black" points="1218.25,-40 826.5,-40 826.5,-4 1218.25,-4 1218.25,-40"/>
<text text-anchor="middle" x="1022.38" y="-16.2" font-family="sans-serif" font-size="14.00">aws_iam_role_policy_attachment.lambda_logging_attachment</text>
</g>
<!-- aws_iam_role_policy_attachment.lambda_logging_attachment&#45;&gt;aws_iam_policy.lambda_logging_policy -->
<g id="edge34" class="edge">
<title>aws_iam_role_policy_attachment.lambda_logging_attachment&#45;&gt;aws_iam_policy.lambda_logging_policy</title>
<path fill="none" stroke="black" d="M826.07,-19.84C816.11,-19.73 806.21,-19.62 796.48,-19.52"/>
<polygon fill="black" stroke="black" points="796.71,-16.02 786.67,-19.41 796.63,-23.02 796.71,-16.02"/>
</g>
<!-- aws_iam_role_policy_attachment.lambda_logging_attachment&#45;&gt;aws_iam_role.lambda_role -->
<g id="edge35" class="edge">
<title>aws_iam_role_policy_attachment.lambda_logging_attachment&#45;&gt;aws_iam_role.lambda_role</title>
<path fill="none" stroke="black" d="M887.61,-40.48C845.17,-46.34 799.01,-52.71 759.38,-58.19"/>
<polygon fill="black" stroke="black" points="759.04,-54.7 749.61,-59.54 760,-61.64 759.04,-54.7"/>
</g>
<!-- aws_lambda_function.todo_api&#45;&gt;aws_dynamodb_table.todo_table -->
<g id="edge36" class="edge">
<title>aws_lambda_function.todo_api&#45;&gt;aws_dynamodb_table.todo_table</title>
<path fill="none" stroke="black" d="M920.54,-254.48C876.09,-251.16 823.55,-247.25 777.3,-243.8"/>
<polygon fill="black" stroke="black" points="777.73,-240.32 767.5,-243.06 777.21,-247.3 777.73,-240.32"/>
</g>
<!-- aws_lambda_function.todo_api&#45;&gt;aws_iam_role.lambda_role -->
<g id="edge37" class="edge">
<title>aws_lambda_function.todo_api&#45;&gt;aws_iam_role.lambda_role</title>
<path fill="none" stroke="black" d="M920.67,-260.21C889.27,-256.51 855.34,-249.12 826.5,-235 809.39,-226.63 727.31,-142.67 684.89,-98.64"/>
<polygon fill="black" stroke="black" points="687.47,-96.27 678.01,-91.49 682.42,-101.13 687.47,-96.27"/>
</g>
<!-- aws_lambda_permission.api_gateway_permission -->
<g id="node30" class="node">
<title>aws_lambda_permission.api_gateway_permission</title>
<polygon fill="none" stroke="black" points="1652.75,-180 1333.75,-180 1333.75,-144 1652.75,-144 1652.75,-180"/>
<text text-anchor="middle" x="1493.25" y="-156.2" font-family="sans-serif" font-size="14.00">aws_lambda_permission.api_gateway_permission</text>
</g>
<!-- aws_lambda_permission.api_gateway_permission&#45;&gt;aws_api_gateway_rest_api.todo_api -->
<g id="edge38" class="edge">
<title>aws_lambda_permission.api_gateway_permission&#45;&gt;aws_api_gateway_rest_api.todo_api</title>
<path fill="none" stroke="black" d="M1333.31,-160.79C1141.2,-161.34 808.54,-168.77 526.25,-208 418.71,-222.94 296.48,-246.95 214.04,-264.18"/>
<polygon fill="black" stroke="black" points="213.48,-260.73 204.41,-266.21 214.92,-267.58 213.48,-260.73"/>
</g>
<!-- aws_lambda_permission.api_gateway_permission&#45;&gt;aws_lambda_function.todo_api -->
<g id="edge39" class="edge">
<title>aws_lambda_permission.api_gateway_permission&#45;&gt;aws_lambda_function.todo_api</title>
<path fill="none" stroke="black" d="M1333.45,-162.35C1305.84,-167.26 1278.3,-175.55 1254.25,-189 1231.59,-201.67 1240.75,-222.05 1218.25,-235 1193.36,-249.33 1163.79,-257.15 1135.31,-261.21"/>
<polygon fill="black" stroke="black" points="1135.02,-257.71 1125.54,-262.44 1135.9,-264.66 1135.02,-257.71"/>
</g>
</g>
</svg>
